<?xml version="1.0" encoding="UTF-8" standalone="no"?> <svg id="FLAT" xmlns="http://www.w3.org/2000/svg" viewBox="0 0 500 500"><path d="M166.031,64.476a5.5,5.5,0,0,0-6.7,3.946L148.823,109l-6.63-31.668a5.5,5.5,0,1,0-10.765,2.254l12.693,60.631a5.5,5.5,0,0,0,10.766-2.254l-.984-4.7,16.074-62.091A5.5,5.5,0,0,0,166.031,64.476Z" style="fill:#896d2c"/><polygon points="484.198 307.784 432.899 228.651 467.91 228.651 425.354 163.005 455.434 163.005 410.071 93.03 364.709 163.005 394.789 163.005 352.233 228.651 387.244 228.651 335.945 307.784 484.198 307.784" style="fill:#5d7c46"/><path d="M138.155,111.8s49.216,52.4,178.959,66.956c0,0,2.532,118.966,115.82,256.946H298.156S131.977,317.621,138.155,111.8Z" style="fill:#896d2c"/><path d="M138.155,111.8s41.926,226.841,160,323.9H184.281c-26.047-6.291-54.648-5.994-85.455,0H15.8S118.476,282.067,138.155,111.8Z" style="fill:#cdb859"/><path d="M184.281,435.7S146.129,295.385,143.1,246.08c0,0-12.134,140.883-44.276,189.621Z" style="fill:#2b2b38"/><path d="M143.1,246.08s1.564,121.225,41.179,189.621c4.545-19.116,13.023-35.764,24.2-50.718a6.112,6.112,0,0,0-.625-8.083C195.22,364.787,156.542,322.38,143.1,246.08Z" style="fill:#fff4c5"/><path d="M311.105,193.718a5.5,5.5,0,0,1-5.433-6.343l4.789-30.884a5.5,5.5,0,1,1,10.869,1.686l-1.717,11.081,11.1-13.461a5.5,5.5,0,1,1,8.486,7L315.35,191.717A5.5,5.5,0,0,1,311.105,193.718Z" style="fill:#896d2c"/><path d="M426.146,196.027a5.5,5.5,0,0,0-7.707,1.054l-2.867,3.777V182.95a5.5,5.5,0,1,0-11,0v76.464c-.3-.271-.59-.545-.9-.807l-4.327-3.685a5.5,5.5,0,0,0-7.133,8.375l4.328,3.686a22.79,22.79,0,0,1,8.03,17.38v81.55a5.5,5.5,0,0,0,11,0V232.293a39.569,39.569,0,0,1,8.006-23.789l3.623-4.771A5.5,5.5,0,0,0,426.146,196.027Z" style="fill:#8e3329"/></svg>