<?xml version="1.0" encoding="UTF-8" standalone="no"?> <svg xmlns="http://www.w3.org/2000/svg" viewBox="0 0 32 32"><defs><style>.cls-1{fill:#2d4a60;}.cls-2{fill:#009ae0;}.cls-3{fill:#eaeff0;}</style></defs><title>TV</title><g id="TV"><path class="cls-1" d="M16,8a1,1,0,0,1-.707-.293l-4-4a1,1,0,0,1,1.414-1.414L16,5.586l3.293-3.293a1,1,0,1,1,1.414,1.414l-4,4A1,1,0,0,1,16,8Z"/><path class="cls-1" d="M7,30a1,1,0,0,1-.949-1.316l1-3a1,1,0,0,1,1.9.632l-1,3A1,1,0,0,1,7,30Z"/><path class="cls-1" d="M25,30a1,1,0,0,1-.949-.684l-1-3a1,1,0,0,1,1.9-.632l1,3A1,1,0,0,1,25,30Z"/><path class="cls-2" d="M24,27H8a5.006,5.006,0,0,1-5-5V11A5.006,5.006,0,0,1,8,6H24a5.006,5.006,0,0,1,5,5V22A5.006,5.006,0,0,1,24,27Z"/><rect class="cls-3" x="6" y="9" width="20" height="15" rx="2"/></g></svg>