<?xml version="1.0" encoding="UTF-8" standalone="no"?> <svg id="Flat" xmlns="http://www.w3.org/2000/svg" xmlns:xlink="http://www.w3.org/1999/xlink" viewBox="0 0 340 340"><defs><linearGradient id="linear-gradient" x1="82.886" y1="84.324" x2="88.138" y2="189.356" gradientUnits="userSpaceOnUse"><stop offset="0" stop-color="#6b6b9d"/><stop offset="1" stop-color="#4a4a77"/></linearGradient><linearGradient id="linear-gradient-2" x1="285.326" y1="93.945" x2="296.1" y2="181.596" gradientUnits="userSpaceOnUse"><stop offset="0" stop-color="#ed6960"/><stop offset="0.291" stop-color="#e15f57"/><stop offset="1" stop-color="#c84943"/></linearGradient><linearGradient id="linear-gradient-3" x1="259.016" y1="272.486" x2="333.918" y2="241.276" gradientUnits="userSpaceOnUse"><stop offset="0" stop-color="#a8958e"/><stop offset="1" stop-color="#8e6e63"/></linearGradient><linearGradient id="linear-gradient-4" x1="15.099" y1="195.394" x2="47.476" y2="271.92" gradientUnits="userSpaceOnUse"><stop offset="0" stop-color="#d7e2ed"/><stop offset="1" stop-color="#eaeded"/></linearGradient><linearGradient id="linear-gradient-5" x1="85.847" y1="335.2" x2="70.592" y2="303.324" gradientUnits="userSpaceOnUse"><stop offset="0" stop-color="#535365"/><stop offset="1" stop-color="#39394c"/></linearGradient><linearGradient id="linear-gradient-6" x1="185.576" y1="324.331" x2="181.951" y2="278.541" xlink:href="#linear-gradient-5"/><linearGradient id="linear-gradient-7" x1="168.635" y1="192.32" x2="170.437" y2="282.448" gradientUnits="userSpaceOnUse"><stop offset="0" stop-color="#bca9a2"/><stop offset="1" stop-color="#a28277"/></linearGradient><linearGradient id="linear-gradient-8" x1="172.19" y1="117.616" x2="187.957" y2="50.757" gradientUnits="userSpaceOnUse"><stop offset="0" stop-color="#edcfc9"/><stop offset="1" stop-color="#eca397"/></linearGradient><linearGradient id="linear-gradient-9" x1="170.191" y1="17.041" x2="209.127" y2="84.509" xlink:href="#linear-gradient-5"/><linearGradient id="linear-gradient-10" x1="76.849" y1="231.007" x2="127.155" y2="161.089" xlink:href="#linear-gradient-8"/><linearGradient id="linear-gradient-11" x1="158.014" y1="80.329" x2="165.174" y2="223.533" xlink:href="#linear-gradient"/><linearGradient id="linear-gradient-12" x1="74.893" y1="257.693" x2="72.49" y2="307.563" xlink:href="#linear-gradient-7"/><linearGradient id="linear-gradient-13" x1="283.713" y1="124.067" x2="294.487" y2="211.718" xlink:href="#linear-gradient-2"/></defs><path d="M129.553,103.391S106.714,91.87,86.433,119.28a127.067,127.067,0,0,1-12.042,14.2,117.7,117.7,0,0,1-18.3,15.332,45.408,45.408,0,0,0,19.1,3.305,23.31,23.31,0,0,0,20.725-15.091c.769-2.025,1.725-4.367,2.914-7.042a33.3,33.3,0,0,1,7.107-10.426c5.846-5.681,15.967-11.044,29.36-1.056Z" style="fill:#39394c"/><path d="M138.472,101.548C130.864,94.778,118.537,88.4,99.136,88.5c0,0-15.228.6-28.222-2.2a20.64,20.64,0,0,0-18.5,5.039L29.581,112.724s24.216,11.73,60.254-4.436a35.512,35.512,0,0,1,23.776-1.886S129.032,110.121,138.472,101.548Z" style="fill:url(#linear-gradient)"/><path d="M116.209,107.212c7.859,2.783,16.941,7.706,23.816,16.4l9.568-6.43s-2.611-8.058-11.123-15.632c-10.8,7.844-24.862,4.86-24.862,4.86h0C114.482,106.647,115.351,106.908,116.209,107.212Z" style="fill:#39394c"/><path d="M287.991,109.2s-.8-20.484,23.039-29.423c0,0,7.6,23.464-13.889,33.147Z" style="fill:#b63131"/><path d="M276.949,75.756s24.394,8.682,19.553,36.137H283.466a15.715,15.715,0,0,0-4.371-9.944,16.5,16.5,0,0,1-4.325-7.679C273.8,89.974,273.54,83.527,276.949,75.756Z" style="fill:url(#linear-gradient-2)"/><path d="M272.9,125.343a21.327,21.327,0,0,1,.737-7.115A15.3,15.3,0,0,1,290.081,107.3c7.592.812,18.038,4.679,15.24,20.224Z" style="fill:#b63131"/><path d="M218.972,208.556S230.09,245.1,270.767,245.1v24.575s-31.874,4.554-54.641-20.946Z" style="fill:#d57370"/><path d="M270.767,245.1l-8.8,40.968s49.332,4.857,67.317-44.321l-6.8-6.229a11.978,11.978,0,0,0-14.033-1.584C300.291,238.6,286.154,245.1,270.767,245.1Z" style="fill:url(#linear-gradient-3)"/><path d="M10.735,188.864s45.327,54.441,60.436,98.33l-16.788,14.15S9.775,265.849,10.735,188.864Z" style="fill:url(#linear-gradient-4)"/><path d="M66.25,316.03l14.78-12.677,6.9,15.473a5.947,5.947,0,0,1-2.52,7.608l-2.884,1.62a5.947,5.947,0,0,1-7.5-1.4Z" style="fill:url(#linear-gradient-5)"/><polygon points="181.746 281.871 181.746 303.015 137.393 299.957 137.393 332.212 231.02 332.212 231.02 306.413 231.02 281.871 181.746 281.871" style="fill:url(#linear-gradient-6)"/><path d="M107.274,155.571s12.357,43.778,39.627,84.079a22.336,22.336,0,0,1,3.352,17.1l-5.268,25.124H231.02s.28-63.689-19.833-122.908C211.187,158.963,153.086,142.123,107.274,155.571Z" style="fill:url(#linear-gradient-7)"/><path d="M147.626,68.671s-7.644,2.991-1.413,16.52,27.592,26.7,27.592,26.7l40.41-9.613s4.628-13.351,3.026-32.221l-43.436-30.44Z" style="fill:url(#linear-gradient-8)"/><path d="M107.274,155.571a331.029,331.029,0,0,0,24.742,59.314c3.3-2.234,9.123-8.247,11.752-23.66,14.766,11.417,33.722,19.845,43.991,23.952a10.78,10.78,0,0,0,13.035-4.065c4.635-7.108,10.464-20.051,10.554-40.261l-49.288-20C144.69,149.7,125.057,150.351,107.274,155.571Z" style="fill:#8b7b76"/><path d="M171.749,53.163s-6.9,4.953-8.794,21.492a.491.491,0,0,1-.93.166c-1.5-3.221-5.561-9.144-14.4-6.15,0,0-14.551-17.422-6.7-40.206l9.764-1.531s5.361-12.253,15.125-19.146c0,0,42.694.383,76.773,43.269L225.356,50.1s5.553,7.084,5.361,29.675C230.717,79.775,188.98,77.669,171.749,53.163Z" style="fill:url(#linear-gradient-9)"/><path d="M186.2,281.871v25.78a10.392,10.392,0,0,1-10.392,10.392H149.333l1.979-36.172Z" style="fill:#904947"/><path d="M162.5,290.062a238.386,238.386,0,0,0-4.638,26.018,18.31,18.31,0,0,1-18.149,16.132H125.018a13.014,13.014,0,0,1-12.864-14.824,84,84,0,0,1,10.782-31.506,15.182,15.182,0,0,1,13.051-7.363h17.375A9.38,9.38,0,0,1,162.5,290.062Z" style="fill:#be6960"/><path d="M108.265,157.505s20.634,3.069,23.288,26.249a18.033,18.033,0,0,1-8.281,17.3l-39.4,24.873v33.682L61.3,244.829l-1.178-20.261a21.439,21.439,0,0,1,3.366-12.657C70.323,201.256,86.268,178.183,108.265,157.505Z" style="fill:url(#linear-gradient-10)"/><path d="M148.49,116.165a26.662,26.662,0,0,1,5.053-21.909,3.272,3.272,0,0,1,2.89-1.286,28.534,28.534,0,0,1,13.96,5.6,13.368,13.368,0,0,0,13.369,1.365,48.4,48.4,0,0,1,30.756-2.957,5.6,5.6,0,0,1,4.383,6.344,63.043,63.043,0,0,1-16.588,33.484,3.324,3.324,0,0,1-3.329.891l-4.555-1.354-1.216,5.038s2.112,4.884,13.7,9.015a8.518,8.518,0,0,1,5.674,8.475c-.476,8.638-2.3,26.347-10.6,39.746a10.035,10.035,0,0,1-13.111,3.566c-11.192-5.74-33.044-18.023-52.589-35.336a31.267,31.267,0,0,0-25.5-7.74q-.7.111-1.414.253a6.332,6.332,0,0,1-7.367-7.756c.026-.1.052-.2.08-.305a26.852,26.852,0,0,1,27.1-19.843c.144.006.289.013.434.022a18.29,18.29,0,0,1,6.429-13.553C142.478,112.712,148.49,116.165,148.49,116.165Z" style="fill:url(#linear-gradient-11)"/><path d="M61.3,244.829s22.346,6.358,34.582,20.5l-5.3,29.378a13.429,13.429,0,0,1-5.232,8.415l-18.7,13.828A8.018,8.018,0,0,1,55.4,315.278a27.1,27.1,0,0,1-2.811-4.884,15.372,15.372,0,0,1,1.727-15.253l8.9-12.272Z" style="fill:url(#linear-gradient-12)"/><path d="M287.473,121.369s-35.612-5.527-36.878,37.817a38.865,38.865,0,0,0,4.391,19.513q.3.565.633,1.14c13.087,22.776,45.679,25.127,61.734,4.336a38.718,38.718,0,0,0,7.588-19.4C328.96,131.82,305.74,124.049,287.473,121.369Z" style="fill:url(#linear-gradient-13)"/><path d="M197.491,147.438c-.79,4.071-3.187,9.687-5.2,13.943a1.414,1.414,0,0,0,2.282,1.6,36.836,36.836,0,0,0,7.99-11.794Z" style="fill:#39394c"/><path d="M180.988,166.3c-4.679-1.63-11.155-5.548-16.321-14.944-6.008-10.929-15.293-19.76-27.014-24.021a65.792,65.792,0,0,0-6.811-2.078,18.6,18.6,0,0,0-1.221,6.217s17.887,3.073,26.331,17.888c0,0,7.633,14.667,19.657,19.493a11.6,11.6,0,0,0,4.916.833A1.739,1.739,0,0,0,180.988,166.3Z" style="fill:#39394c"/><path d="M206.913,150.4c-11.588-4.13-13.7-9.015-13.7-9.015l1.216-5.038s-16.331-7.669-25.6-16.874a1.873,1.873,0,0,0-3.143,1.784c2.489,9.6,10.307,26.371,34.813,33.222,3.28.917,5.1,4.461,4.7,7.843-.706,5.959-2.436,15.38-6.648,23.775a9.3,9.3,0,0,1-12.589,3.995,182.721,182.721,0,0,1-43.569-31.857,32.473,32.473,0,0,0-17.807-9.181,21.447,21.447,0,0,0-10.44.624c-6.8,2.4-7.188-4-6.639-8.712a26.648,26.648,0,0,0-5.415,10.326c-.029.106-.056.211-.084.316a6.332,6.332,0,0,0,7.368,7.756q.716-.143,1.413-.253a31.269,31.269,0,0,1,25.5,7.74c19.533,17.3,41.372,29.581,52.57,35.326a10.046,10.046,0,0,0,13.13-3.556c8.3-13.4,10.12-31.108,10.6-39.746A8.518,8.518,0,0,0,206.913,150.4Z" style="fill:#39394c"/><path d="M196.271,88.167a3,3,0,0,1-1.064-.2c-.87-.33-2.015-.691-2.035-.7a3,3,0,0,1,1.805-5.723c.054.017,1.343.424,2.359.81a3,3,0,0,1-1.065,5.806Z" style="fill:#d57370"/><path d="M209.38,89.94a3,3,0,0,1-.732-5.909s.883-.223,2.055-.463a3,3,0,0,1,1.2,5.879c-1,.2-1.764.395-1.791.4A3.048,3.048,0,0,1,209.38,89.94Z" style="fill:#d57370"/></svg>