<?xml version="1.0" encoding="UTF-8" standalone="no"?> <svg height="512" viewBox="0 0 64 64" width="512" xmlns="http://www.w3.org/2000/svg" xmlns:xlink="http://www.w3.org/1999/xlink"><linearGradient id="New_Gradient_Swatch_copy_2" gradientUnits="userSpaceOnUse" x1="14.58" x2="14.58" y1="63.298" y2="1.332"><stop offset="0" stop-color="#6713d2"/><stop offset="1" stop-color="#cc208e"/></linearGradient><linearGradient id="New_Gradient_Swatch_copy_2-2" x1="49.42" x2="49.42" xlink:href="#New_Gradient_Swatch_copy_2" y1="63.298" y2="1.332"/><linearGradient id="New_Gradient_Swatch_copy_2-3" x1="32" x2="32" xlink:href="#New_Gradient_Swatch_copy_2" y1="63.298" y2="1.332"/><linearGradient id="New_Gradient_Swatch_copy_2-4" x1="27" x2="27" xlink:href="#New_Gradient_Swatch_copy_2" y1="63.298" y2="1.332"/><linearGradient id="New_Gradient_Swatch_copy_2-5" x1="40" x2="40" xlink:href="#New_Gradient_Swatch_copy_2" y1="63.298" y2="1.332"/><linearGradient id="New_Gradient_Swatch_copy_2-8" x1="24" x2="24" xlink:href="#New_Gradient_Swatch_copy_2" y1="63.298" y2="1.332"/><linearGradient id="New_Gradient_Swatch_copy_2-15" x1="17" x2="17" xlink:href="#New_Gradient_Swatch_copy_2" y1="63.298" y2="1.332"/><g id="Robot-Robotics-Artificial_Intelligence-Supporter-Headphone" data-name="Robot-Robotics-Artificial Intelligence-Supporter-Headphone"><path d="m18 20a14.713 14.713 0 0 1 .16-2h-4.16a3.009 3.009 0 0 0 -3 3v4a3.009 3.009 0 0 0 3 3h4z" fill="url(#New_Gradient_Swatch_copy_2)"/><path d="m53 21a3.009 3.009 0 0 0 -3-3h-4.16a14.713 14.713 0 0 1 .16 2v8h4a3.009 3.009 0 0 0 3-3z" fill="url(#New_Gradient_Swatch_copy_2-2)"/><path d="m24.18 36h-4.18v8h5.38l1.45-2.89a1.971 1.971 0 0 1 1.79-1.11h6.76a1.971 1.971 0 0 1 1.79 1.11l1.45 2.89h5.38v-20h-3v1a3.009 3.009 0 0 1 -3 3h-12a3.009 3.009 0 0 1 -3-3v-1h-3v10h4.18a2.986 2.986 0 0 1 5.79.7 6.6 6.6 0 0 0 2.03.3 5.594 5.594 0 0 0 3.39-.99l1.25 1.56a7.5 7.5 0 0 1 -4.64 1.43 8.711 8.711 0 0 1 -2.49-.36 2.992 2.992 0 0 1 -5.33-.64z" fill="url(#New_Gradient_Swatch_copy_2-3)"/><circle cx="27" cy="35" fill="url(#New_Gradient_Swatch_copy_2-4)" r="1"/><path d="m36 55v1h8v-1a3.009 3.009 0 0 0 -3-3h-2a3.009 3.009 0 0 0 -3 3z" fill="url(#New_Gradient_Swatch_copy_2-5)"/><path d="m39 46h2v4h-2z" fill="url(#New_Gradient_Swatch_copy_2-5)"/><path d="m32 8a12.01 12.01 0 0 0 -12 12v2h3v-1a3.009 3.009 0 0 1 3-3h12a3.009 3.009 0 0 1 3 3v1h3v-2a12.01 12.01 0 0 0 -12-12zm-3 8h-2v-2h2zm4 0h-2v-2h2zm4 0h-2v-2h2z" fill="url(#New_Gradient_Swatch_copy_2-3)"/><path d="m20 58h8v2h-8z" fill="url(#New_Gradient_Swatch_copy_2-8)"/><path d="m36 58h8v2h-8z" fill="url(#New_Gradient_Swatch_copy_2-5)"/><path d="m20 56h8v-1a3.009 3.009 0 0 0 -3-3h-2a3.009 3.009 0 0 0 -3 3z" fill="url(#New_Gradient_Swatch_copy_2-8)"/><path d="m23 46h2v4h-2z" fill="url(#New_Gradient_Swatch_copy_2-8)"/><g fill="url(#New_Gradient_Swatch_copy_2-3)"><path d="m26 20a1 1 0 0 0 -1 1v4a1 1 0 0 0 1 1h12a1 1 0 0 0 1-1v-4a1 1 0 0 0 -1-1zm3 4h-2v-2h2zm8 0h-2v-2h2z"/><path d="m28.62 42-1 2h8.76l-1-2z"/><path d="m49.54 16h-2.05a16 16 0 0 0 -30.98 0h-2.05a17.988 17.988 0 0 1 35.08 0z"/></g><path d="m20 36h-1a4.995 4.995 0 0 1 -5-5v-1h2v1a2.994 2.994 0 0 0 3 3h1z" fill="url(#New_Gradient_Swatch_copy_2-15)"/></g></svg>